<?xml version="1.0" encoding="UTF-8"?>
<svg id="Layer_2" data-name="Layer 2" xmlns="http://www.w3.org/2000/svg" viewBox="0 0 313.89 325">
  <defs>
    <style>
      .cls-1 {
        fill: #edc17d;
      }

      .cls-1, .cls-2, .cls-3, .cls-4, .cls-5, .cls-6, .cls-7 {
        stroke: #614745;
      }

      .cls-1, .cls-2, .cls-3, .cls-5 {
        stroke-miterlimit: 10;
      }

      .cls-2 {
        fill: #9da288;
      }

      .cls-3, .cls-4 {
        fill: none;
      }

      .cls-4, .cls-6, .cls-7 {
        stroke-linecap: round;
        stroke-linejoin: round;
      }

      .cls-5 {
        fill: #b0c6a1;
      }

      .cls-6 {
        fill: #fcd47d;
      }

      .cls-7 {
        fill: #d0cc85;
      }
    </style>
  </defs>
  <g id="Layer_2-2" data-name="Layer 2">
    <g>
      <line class="cls-4" x1="32.54" y1=".5" x2="32.54" y2="127.68"/>
      <rect class="cls-5" x=".5" y=".5" width="22.66" height="324"/>
      <rect class="cls-1" x="23.16" y=".5" width="33.38" height="324"/>
      <rect class="cls-2" x="56.54" y=".5" width="24.62" height="324"/>
      <rect class="cls-5" x="81.16" y=".5" width="11.59" height="324"/>
      <rect class="cls-1" x="92.75" y=".5" width="16.16" height="324"/>
      <rect class="cls-2" x="108.91" y=".5" width="11.59" height="324"/>
      <rect class="cls-5" x="120.5" y=".5" width="28.62" height="324"/>
      <rect class="cls-2" x="149.12" y=".5" width="25.29" height="324"/>
      <rect class="cls-1" x="174.41" y=".5" width="31.17" height="324"/>
      <rect class="cls-5" x="205.58" y=".5" width="18.45" height="324"/>
      <rect class="cls-2" x="224.03" y=".5" width="35.44" height="324"/>
      <rect class="cls-5" x="259.47" y=".5" width="37.17" height="324"/>
      <rect class="cls-1" x="296.64" y=".5" width="16.75" height="324"/>
      <path class="cls-1" d="M77.3,324.26v-189.48c0-2.9,1.04-5.72,2.99-7.86,37.42-41.06,118.38-41.07,156.61-.02,2,2.15,3.07,5.01,3.07,7.96v189.4s-162.67,0-162.67,0Z"/>
      <g>
        <line class="cls-4" x1="235.61" y1="75.19" x2="235.61" y2="61.88"/>
        <path class="cls-7" d="M247.05,97.74c-.2-.59-.97-1.54-2.38-2.81-5.2-4.69-9.06-16.11-9.06-19.75,0,3.64-3.87,15.06-9.06,19.75-1.41,1.27-2.18,2.22-2.38,2.81-.98,2.87,3.39,6.87,6.07,3.34-1.12,3.81,4.36,5.37,5.37,1.51,1.12,3.86,6.77,2.3,5.37-1.51,2.69,3.52,7.05-.48,6.07-3.34Z"/>
      </g>
      <path class="cls-7" d="M39.17,130.13c-.12-.34-.56-.89-1.38-1.63-3.01-2.72-5.25-9.33-5.25-11.44,0,2.11-2.24,8.73-5.25,11.44-.82.74-1.26,1.29-1.38,1.63-.57,1.66,1.96,3.98,3.52,1.94-.65,2.21,2.53,3.11,3.11.88.65,2.24,3.92,1.33,3.11-.88,1.56,2.04,4.09-.28,3.52-1.94Z"/>
      <g>
        <line class="cls-4" x1="155.83" y1="66.18" x2="155.83" y2="42.31"/>
        <path class="cls-7" d="M162.46,79.25c-.12-.34-.56-.89-1.38-1.63-3.01-2.72-5.25-9.33-5.25-11.44,0,2.11-2.24,8.73-5.25,11.44-.82.74-1.26,1.29-1.38,1.63-.57,1.66,1.96,3.98,3.52,1.94-.65,2.21,2.53,3.11,3.11.88.65,2.24,3.92,1.33,3.11-.88,1.56,2.04,4.09-.28,3.52-1.94Z"/>
      </g>
      <g>
        <line class="cls-4" x1="174.41" y1="50.18" x2="174.41" y2="35.94"/>
        <path class="cls-7" d="M181.04,63.25c-.12-.34-.56-.89-1.38-1.63-3.01-2.72-5.25-9.33-5.25-11.44,0,2.11-2.24,8.73-5.25,11.44-.82.74-1.26,1.29-1.38,1.63-.57,1.66,1.96,3.98,3.52,1.94-.65,2.21,2.53,3.11,3.11.88.65,2.24,3.92,1.33,3.11-.88,1.56,2.04,4.09-.28,3.52-1.94Z"/>
      </g>
      <g>
        <line class="cls-4" x1="278.05" y1="110.5" x2="278.05" y2="55.73"/>
        <path class="cls-6" d="M284.68,123.57c-.12-.34-.56-.89-1.38-1.63-3.01-2.72-5.25-9.33-5.25-11.44,0,2.11-2.24,8.73-5.25,11.44-.82.74-1.26,1.29-1.38,1.63-.57,1.66,1.96,3.98,3.52,1.94-.65,2.21,2.53,3.11,3.11.88.65,2.24,3.92,1.33,3.11-.88,1.56,2.04,4.09-.28,3.52-1.94Z"/>
      </g>
      <path class="cls-7" d="M68.43,96.11c-.21-.61-1.01-1.6-2.47-2.92-5.4-4.87-9.42-16.75-9.42-20.53,0,3.78-4.02,15.66-9.42,20.53-1.46,1.32-2.26,2.31-2.47,2.92-1.02,2.98,3.52,7.14,6.31,3.48-1.16,3.96,4.54,5.58,5.58,1.57,1.16,4.01,7.04,2.39,5.58-1.57,2.79,3.66,7.33-.5,6.31-3.48Z"/>
      <g>
        <line class="cls-4" x1="42.19" y1="58.77" x2="42.19" y2=".5"/>
        <path class="cls-6" d="M60.99,69.97c-.33-.97-1.6-2.53-3.91-4.62-8.54-7.7-14.89-26.47-14.89-32.44,0,5.97-6.35,24.74-14.89,32.44-2.31,2.09-3.58,3.65-3.91,4.62-1.61,4.71,5.56,11.28,9.98,5.49-1.84,6.26,7.17,8.82,8.82,2.48,1.84,6.34,11.12,3.77,8.82-2.48,4.41,5.79,11.59-.78,9.98-5.49Z"/>
      </g>
      <path class="cls-6" d="M92.61,109.98c-.2-.59-.97-1.54-2.38-2.81-5.2-4.69-9.06-16.11-9.06-19.75,0,3.64-3.87,15.06-9.06,19.75-1.41,1.27-2.18,2.22-2.38,2.81-.98,2.87,3.39,6.87,6.07,3.34-1.12,3.81,4.36,5.37,5.37,1.51,1.12,3.86,6.77,2.3,5.37-1.51,2.69,3.52,7.05-.48,6.07-3.34Z"/>
      <path class="cls-7" d="M131.94,34.64c-.2-.59-.97-1.54-2.38-2.81-5.2-4.69-9.06-16.11-9.06-19.75,0,3.64-3.87,15.06-9.06,19.75-1.41,1.27-2.18,2.22-2.38,2.81-.98,2.87,3.39,6.87,6.07,3.34-1.12,3.81,4.36,5.37,5.37,1.51,1.12,3.86,6.77,2.3,5.37-1.51,2.69,3.52,7.05-.48,6.07-3.34Z"/>
      <g>
        <line class="cls-4" x1="241.61" y1="38.55" x2="241.61" y2=".5"/>
        <path class="cls-6" d="M253.05,61.11c-.2-.59-.97-1.54-2.38-2.81-5.2-4.69-9.06-16.11-9.06-19.75,0,3.64-3.87,15.06-9.06,19.75-1.41,1.27-2.18,2.22-2.38,2.81-.98,2.87,3.39,6.87,6.07,3.34-1.12,3.81,4.36,5.37,5.37,1.51,1.12,3.86,6.77,2.3,5.37-1.51,2.69,3.52,7.05-.48,6.07-3.34Z"/>
      </g>
      <path class="cls-6" d="M174.19,36.69c-.32-.95-1.56-2.47-3.82-4.51-8.34-7.52-14.54-25.85-14.54-31.68,0,5.83-6.2,24.16-14.54,31.68-2.26,2.04-3.49,3.56-3.82,4.51-1.57,4.6,5.43,11.02,9.74,5.36-1.79,6.11,7,8.62,8.62,2.42,1.79,6.19,10.86,3.69,8.62-2.42,4.31,5.65,11.32-.77,9.74-5.36Z"/>
      <g>
        <line class="cls-4" x1="278.05" y1="22.84" x2="278.05" y2="1.49"/>
        <path class="cls-7" d="M296.41,59.03c-.32-.95-1.56-2.47-3.82-4.51-8.34-7.52-14.54-25.85-14.54-31.68,0,5.83-6.2,24.16-14.54,31.68-2.26,2.04-3.49,3.56-3.82,4.51-1.57,4.6,5.43,11.02,9.74,5.36-1.79,6.11,7,8.62,8.62,2.42,1.79,6.19,10.86,3.69,8.62-2.42,4.31,5.65,11.32-.77,9.74-5.36Z"/>
      </g>
      <line class="cls-3" x1="32.54" y1="117.06" x2="32.54" y2="76.38"/>
    </g>
  </g>
</svg>