<?xml version="1.0" encoding="UTF-8"?>
<svg id="Layer_2" data-name="Layer 2" xmlns="http://www.w3.org/2000/svg" viewBox="0 0 162.7 230.45">
  <defs>
    <style>
      .cls-1 {
        fill: #d0cc85;
      }

      .cls-1, .cls-2, .cls-3, .cls-4 {
        stroke: #3f3632;
        stroke-linecap: round;
        stroke-linejoin: round;
      }

      .cls-2, .cls-5 {
        fill: none;
      }

      .cls-5, .cls-6 {
        stroke-width: 0px;
      }

      .cls-6 {
        fill: #3f3632;
      }

      .cls-3 {
        fill: #ecbd6a;
      }

      .cls-4 {
        fill: #fff;
      }
    </style>
  </defs>
  <g id="Layer_4" data-name="Layer 4">
    <g>
      <rect class="cls-5" x=".18" y=".13" width="162.34" height="225.61" transform="translate(-.18 .13) rotate(-.09)"/>
      <g>
        <g>
          <path class="cls-6" d="M67.96,188.48c.64,0,.64-1,0-1s-.64,1,0,1h0Z"/>
          <path class="cls-3" d="M50.81,195.45c-2.02,1.24-5.64,3.3-7.23,5.23-1.88,2.28-3.23,4.9-4.42,7.6s-1.84,5.43-2.61,8.23c-1.84,6.71-1.45,13.38-1.45,13.38l5.12-.32s.61-6.29.86-7.57.54-2.62,1-3.87c2.53-6.92,2.99-8.89,6.07-12.69,3.08-3.8,4.81-3.32,4.99-5.89.07-1.07-2.32-4.09-2.32-4.09Z"/>
          <path class="cls-3" d="M67.21,146.85c-3.69.71-8.55,5.17-12.05,9.45-3.1,3.78-6.09,8.36-7.58,13.01-.52-3.07-.49-6.38-1.02-9.45,0-.05,1.79-6.24,2.04-8.34.19-1.59,1.37-8.77.76-15.42-.49-5.38-1.65-9.53-2.63-10.45-.34-.32-1.65-.79-1.88-.3-.6,1.26-.09,2.85.11,4.18,1.04,7,1.27,10.86.81,13.88-.23,1.5-1.03,5.96-1.35,7.42,0,.01-.73-2.81-.73-2.8-.92-2.95-2.93-7.2-4.77-9.62-.85-1.12-1.38,1.29-1.05,2.54.54,1.98.89,3.2,1.53,4.91.59,1.58,1.05,3.28,1.38,4.94.35,1.76.97,3.61,1.2,5.4.9,7.08,1.6,10,2.34,13.92.34,1.78.32,11.67,1.74,20.42,1.04,6.39,6.37,12.44,9.06,18.29,1.44,3.14,2.44,5.21,3.55,8.5.54,1.61,1.07,3.23,1.63,4.83.32.91.81,6.5,1.2,7.39.34.77,5.93.44,5.84-1.07-.1-1.65-2.94-12.83-5.56-19.04-2.33-5.52-7.37-9.95-9.39-15.6-1.91-5.34-3.6-12.14-2.92-17.82.61-5.1,4.54-11.44,7.8-15.37,3.05-3.68,5.66-7.07,11.65-9.79l-1.7-4.01Z"/>
          <path class="cls-3" d="M143.02,32.96c-4.91.01-9.62.96-14.03,2.65,1.46-1.98,2.85-4.02,4.09-6.15,1.48-2.52,2.83-5.09,3.91-7.81.53-1.32,1.11-2.68,1.47-4.06.32-1.22.76-2.83.52-4.08-.12-.59-.84-.69-1.25-.35-.52.43-.74.99-1.09,1.55-.34.54-.73,1.05-1.05,1.62-.67,1.19-1.22,2.44-1.87,3.65-1.33,2.48-2.64,4.98-4.09,7.4-1.41,2.36-2.88,4.68-4.49,6.91-.8,1.11-1.59,2.23-2.4,3.34-.41.56-.9,1.12-1.26,1.72-5.32,3.3-10.02,7.69-13.88,12.73.56-2.03,1.04-4.08,1.48-6.13.7-3.24,1.41-6.59,1.68-9.9.14-1.71.16-3.39.09-5.1-.07-1.66-.03-3.11-1.27-4.35-.33-.33-.9-.36-1.24-.02-1.17,1.2-1.19,2.48-1.35,4.08-.16,1.62-.35,3.24-.49,4.86-.27,3.23-.44,6.44-.95,9.64-.5,3.15-1.25,6.22-2.04,9.3-.4,1.57-.84,3.14-1.33,4.69-.42,1.35-.94,2.69-1.26,4.07-.54,1.19-1.05,2.4-1.5,3.61-1.83,4.91-3.29,9.97-3.94,15.19-.67,5.35-.3,10.74.33,16.07.34,2.86.7,5.71.73,8.6.02,2.23-.35,4.39-.69,6.59-.66,4.31-1.99,8.54-3.95,12.44-2.24,4.46-5.26,8.5-9.06,11.76-1.89,1.62-3.87,2.85-6.03,4.11-1.05.61-2.13,1.18-3.18,1.79-.53.31-1.06.59-1.58.91-.79.48-1.24,1.01-1.85,1.68-1.39,1.54-.51,3.99,1.62,4.11,4.88.27,9.2-3.7,12.61-6.75,3.41-3.04,6.47-6.65,8.96-10.48,2.48-3.82,4.55-7.89,5.94-12.24.68-2.15,1.19-4.35,1.54-6.58.35-2.28.29-4.58.24-6.89-.12-5.63-1.14-11.2-1.17-16.84-.03-5.08.3-10.31,1.29-15.29,1.93-9.76,6.38-18.91,13.52-25.94,7.44-7.33,17.78-12.15,28.2-13.12,1.85-.17,2-2.97.05-2.97Z"/>
          <path class="cls-3" d="M110.4,176.81c-.56-.84-1.58-1.4-2.48-1.84-.92-.45-1.92-.78-2.9-1.07-2.11-.61-4.41-1.2-6.61-1.38-.04,0-.08,0-.12,0,.49-.32,1.93-2.47,4.31-4.91,2.92-2.99,6.89-6.4,7.68-7.45.35-.47.3-1.21.03-1.69-.23-.41-.53-.68-.99-.79-.8-.19-1.23.33-1.9.74-2.82,1.71-14.73,11.84-17.67,12.93s-7.29,2.13-13.85,5.34c.03-3.87-.22-4.92-.15-8.97.03-2.11.04-5.06,0-7.17-.06-4.29-1.18-7.73-2.64-11.77-1.32-3.66-2.01-7.53-3.08-11.28-1.03-3.58-1.12-7.06.05-10.62,1.18-3.59,3.32-6.85,5.6-9.84,4.67-6.11,10.97-10.77,18.27-13.24,1.66-.56,2.45-.61,2.45-.61l-.52-4.9s-1.23.35-2.95.86c-4.34,1.29-8.55,2.87-12.21,5.49.33-.9.65-1.82.95-2.73.68-2.05.98-4.17,1.32-6.3,1.32-8.29,2.39-16.58,2.31-24.99-.02-2.35-.18-4.69-.28-7.03-.05-1.13-.12-2.44-.48-3.51-.21-.63-.6-1.13-.82-1.77-.19-.57-.44-1.02-.88-1.44-.46-.44-1.44-.49-1.75.2-.4.88-.24,1.55-.32,2.42,0,0-.02.07-.07.29-.07.33-.18.64-.19,1,0,.61.14,1.23.23,1.83.28,1.95.59,3.87.79,5.83.3,3,.35,6,.22,9-.92-2.54-2.02-5-3.46-7.29-1.35-2.15-4.85-.1-3.41,1.92,1.44,2.02,2.6,4.21,3.27,6.6.69,2.5.8,4.89.92,7.46.11,2.55-.07,5.04-.23,7.59,0,.05,0,.1-.01.15-.54,1.51-1.1,3.01-1.71,4.5-.79,1.91-1.38,3.9-2.15,5.83-.84,2.12-1.73,4.21-2.57,6.32-.42,1.04-.89,2.08-1.19,3.16-.04.15-.09.3-.14.46-3.81,4.86-6.89,10.54-7.48,16.61-.78,8.11,4.03,15.06,6.04,22.6,1.07,4,1.25,8.08,1.42,12.19.09,2.09.13,4.18.09,6.27-.02,1.05.1,2.16-.03,3.2-.13,1.03-.36,2.06-.66,3.05-.65,2.1-2.06,3.83-3.24,5.67-1.19,1.85-4,5.42-8.34,8.14-1.74,1.09-6.26,2.57-6.26,2.57l3.15,5.57s6.06-3.47,8.9-5.89c1.34-1.15,2.54-2.45,3.66-3.82.63-.77,4.69-5.4,7.68-7.27,1.66-1.04,5.77-4.26,10.19-5.55,4.88-1.42,10.11-.86,12.16-.73,1.93.12,3.77.21,5.67.61,1.75.37,4.03,1.24,5.81.85.56-.12.92-.87.58-1.37Z"/>
          <path class="cls-3" d="M141.43,70.06c-.48.41-1.16.69-1.68,1.09-.66.51-1.21,1.15-1.73,1.8-1,1.25-1.99,2.5-3.05,3.7-2.13,2.42-4.71,4.5-7.13,6.64-2.38,2.11-12.35,9.7-13.99,10.57-6.01,1.41-13.24,3.38-13.24,3.38l.25,5.2s5.28-1.87,8.34-2.23c1.57-.18,5.66-1.3,9.53-1.84,3.57-.5,6.94-.43,8.39-.58,1.53-.16,3.05-.4,4.59-.51.78-.05,1.66,0,2.41-.26.65-.24.88-.66,1.27-1.18.06-.08.73-1.06.25-1.43-.85-.66-3.16-.85-3.62-.87-1.55-.08-3.09-.25-4.64-.36-1.58-.1-3.2-.06-4.81.03,0,0,0,0,.01,0,2.87-1.91,5.62-4,8.19-6.29,1.21-1.07,2.46-2.15,3.48-3.41,1.12-1.37,2.23-2.75,3.37-4.1,1.07-1.26,2.1-2.55,3.09-3.87.49-.65.95-1.32,1.28-2.06.39-.87.38-1.79.67-2.66.25-.75-.7-1.21-1.24-.75Z"/>
        </g>
        <g>
          <path class="cls-3" d="M81.27,185.32c-2.2,1.05-3.98,7.05-2.83,9.44s12.88,11.28,14.35,10.33-.62-13.88-1.37-15.47-7.13-5.74-10.16-4.29Z"/>
          <path class="cls-2" d="M81.27,185.32c.97,3.81,6.17,11.48,6.75,11.82"/>
          <path class="cls-2" d="M86.08,194.54c.9.25,3.56.58,3.56.58"/>
          <path class="cls-2" d="M83.21,189.79c1.18.29,3.58.99,3.58.99"/>
          <path class="cls-2" d="M84.19,191.53c-.26,1.29-.63,3.48-.48,4.47"/>
        </g>
        <g>
          <path class="cls-1" d="M117.48,161.48c-2.24-1.76-1.32-10.86.2-11.92s15.3-7.83,16.62-7.31-3.09,15.7-5.37,17.25-8.41,4.36-11.45,1.98Z"/>
          <path class="cls-2" d="M117.48,161.48c2.33-1.41,11.43-12.67,11.43-12.67"/>
          <path class="cls-2" d="M122.58,156.33c1.45.31,3.21.05,3.21.05"/>
          <path class="cls-2" d="M126.41,151.84c1.78.12,3.79-.81,3.79-.81"/>
          <path class="cls-2" d="M120.13,159.03c-.68-2.55.55-6.19.55-6.19"/>
          <path class="cls-2" d="M124.59,154c-.33-1.27.74-4.25.74-4.25"/>
        </g>
        <g>
          <path class="cls-3" d="M136.84,99.74c-3.02.95-5.57,8.91-5.21,12.75s15.4,6.09,16.42,5.19-2.02-14.12-3.74-15.56-4.19-3.4-7.46-2.37Z"/>
          <path class="cls-2" d="M136.84,99.74c.03,3.39,3.12,11.94,5.85,13.99"/>
          <path class="cls-2" d="M139.99,109.66c.93.02,1.8.19,3.59.89"/>
          <path class="cls-2" d="M138.36,106.04c-1,2.43-1.15,6.26-1.15,6.26"/>
          <path class="cls-2" d="M137.49,103.48c2.02.77,4.18,1.48,5.33,2.25"/>
        </g>
        <g>
          <path class="cls-1" d="M114.78,87.87c-2.68-.17-5.57-11.09-4.6-13.99.96-2.9,9.71-10.34,11.8-9.47s4.13,8.74,3.59,10.89-7.13,12.8-10.79,12.57Z"/>
          <path class="cls-4" d="M114.38,87.76c.62-3.16,3.38-13.54,4.48-14.6"/>
          <path class="cls-4" d="M116.91,78.09c1.21-.36,2.81-1.34,3.32-1.96"/>
          <path class="cls-4" d="M115.44,83.31c1.18-.52,2.61-1.58,2.61-1.58"/>
          <path class="cls-4" d="M116.32,80.1c-1.14-1.17-2.09-4.06-2.09-4.06"/>
        </g>
        <g>
          <path class="cls-3" d="M85.31,50.71c2.58-.67,5.3-7.91,5.35-11s-10.7-12.93-12.7-12.88-2.83,9.7-2.21,12.63,5.97,12.18,9.56,11.24Z"/>
          <path class="cls-2" d="M85.31,50.71c-1.43-4.47-3.79-12.51-4.16-15.68"/>
          <path class="cls-2" d="M82.05,39.39c.74-2.5,1.33-4.99,1.33-4.99"/>
          <path class="cls-2" d="M83.88,46.05c-1.98-.75-4.34-4.13-4.34-4.13"/>
          <path class="cls-2" d="M83.91,44.02c.61-1.18,1.07-3.59,1.07-3.59"/>
        </g>
      </g>
    </g>
  </g>
</svg>