<?xml version="1.0" encoding="UTF-8"?>
<svg id="Layer_2" data-name="Layer 2" xmlns="http://www.w3.org/2000/svg" viewBox="0 0 163.06 230.98">
  <defs>
    <style>
      .cls-1 {
        fill: #d0cc85;
      }

      .cls-1, .cls-2, .cls-3 {
        stroke: #3f3632;
        stroke-linecap: round;
        stroke-linejoin: round;
      }

      .cls-2, .cls-4 {
        fill: none;
      }

      .cls-4 {
        stroke-width: 0px;
      }

      .cls-3 {
        fill: #ecbd6a;
      }
    </style>
  </defs>
  <g id="Layer_4" data-name="Layer 4">
    <g>
      <polygon class="cls-4" points="163.06 225.61 .72 225.79 0 .19 162.34 0 163.06 225.61"/>
      <g>
        <g>
          <path class="cls-3" d="M119.99,227.86c.65-1.17.46-4.02-.79-7.69-1.09-3.2-3.18-7.26-3.72-8.36-1.15-2.34-2.47-4.6-4.01-6.71s-3.53-4.13-5.57-5.95c-1.67-1.5-4.4,2.36-2.86,3.91,3.32,3.35,5.71,6.84,7.75,11.09,1.03,2.14,1.83,4.87,2.56,7.14,1.29,4.02.49,7.16,1.27,8.04.58.66,5.35-1.47,5.35-1.47Z"/>
          <path class="cls-3" d="M55.45,97.04s-7.22-1.33-8.97-2.04c-7.37-3-12.89-5.91-18.35-12.8-2.47-3.12-4.61-6.48-6.55-9.96-.52-.93-.99-1.88-1.45-2.83s-1.11-1.84-1.59-2.8c-1-2.03-1.41-4.45-2.13-6.59-.24-.71-1.27-.44-1.24.27.08,2.1.54,4.06,1.14,6.08.3,1,.34,2.04.58,3.06s.61,1.95.99,2.9c1.58,3.94,2.91,7.77,5.57,11.08,1.17,1.45,5.12,6.02,8.89,9.26,4.62,3.98,9.93,6.33,10.98,6.85,2.15,1.07,4.59,1.59,6.88,2.31,1.13.35,4.51,1.12,4.51,1.12l.74-5.92Z"/>
          <path class="cls-3" d="M84.49,145.91c-.06-.79-.46-1.6-1.23-1.85-4.01-1.34-8.03-3.28-11.44-5.82-1.72-1.28-3.33-2.67-4.91-4.11-.8-.73-1.82-1.33-2.3-2.31-2.24-4.6-3.36-6.38-4.5-13.7-.87-5.55-.91-9.45-.8-14.53.04-1.57.43-3.34.58-4.9.29-3.15.43-6.33.34-9.49-.19-6.27-1.26-12.33-3.51-18.2-2.16-5.64-5.04-11.2-9.07-15.73-4.04-4.55-8.84-8.38-14.06-11.49-.2-.83-.67-1.63-1.02-2.39-.44-.96-.89-1.92-1.34-2.88-.96-2.01-1.96-3.95-3.24-5.79-1.21-1.73-2.14-3.62-3.19-5.45-1.01-1.76-2.01-3.9-3.68-5.11-.41-.3-1.07-.05-1,.51.22,1.98,1.44,3.82,2.33,5.59.98,1.94,2.02,3.84,2.7,5.91.66,2.02,1.48,3.93,2.33,5.88.08.18.15.36.23.54-1.31-.65-2.62-1.28-3.95-1.89-1.59-.73-3.19-1.45-4.81-2.13-1.79-.75-3.5-1.52-5.44-1.7-1.49-.13-2.62,1.68-1.33,2.78,2.34,1.99,5.47,2.96,8.25,4.21,2.76,1.25,5.5,2.56,8.17,3.99,5.23,2.81,10.45,5.96,14.69,10.15,2.02,2,3.91,4.23,5.5,6.58,1.63,2.42,2.78,5.13,3.72,7.89.62,1.82,1.09,3.71,1.46,5.62-.21-.04-.42-.08-.6-.13-2.01-.5-4-1.14-5.95-1.85-1.91-.7-3.88-1.38-5.71-2.29-1.94-.96-3.64-2.32-5.61-3.2-.5-.22-1.09.37-.73.85,1.14,1.48,2.63,2.54,4.16,3.59,1.55,1.07,3.08,2.26,4.72,3.2,1.66.95,3.41,1.78,5.2,2.44,1.65.61,3.42,1.3,5.18,1.6.3,2.39.5,4.8.67,7.16.24,3.27-.51,10.94-.59,11.65-.53,4.39-.55,8.87-.28,13.28.13,2.2.32,4.38.89,6.51.52,1.98,1.12,3.96,1.7,5.92.31,1.02.66,2.03,1.05,3.04-.32-.27-.63-.54-.95-.81-3.56-2.96-7.28-5.64-11.13-8.21-3.87-2.58-7.8-4.87-11.91-7.04-1.97-1.04-3.9-2.15-5.89-3.16-.83-.42-4.87-2.72-5.1-.56-.12,1.09.6,1.5,1.43,2.01.9.54,1.8,1.04,2.73,1.53,1.97,1.03,3.97,2.06,5.85,3.25,2.33,1.48,4.66,3,6.95,4.57-1.51.57-3.01,1.14-4.61,1.36-2.8.38-5.65.54-8.47.71-1.16.07-1.13,1.68-.09,1.95,2.96.78,5.94.86,8.98.5,2.81-.33,5.84-.33,8.48-1.5,3.54,2.58,6.99,5.31,10.36,8.11,1.71,1.43,3.4,2.89,5.05,4.39.77.7,7.09,6.29,9.13,7.77,3.96,2.88,8.43,5.27,12.96,7.03,1.04.41,2.36-.58,2.88-1.64.31-.64.23-1.56-.21-2.19Z"/>
          <path class="cls-3" d="M102.02,195.01c-6.31-3.05-11.83-7.08-15.54-13.13-3.69-6.03-5.04-13.15-3.52-20.07,1-4.56,2.9-8.86,4.34-13.29,1.35-4.15,2.05-8.29,2.19-12.66.15-4.66-.31-8.71-1.58-13.34-1.74-6.36-4.6-11.46-4.95-12.68-.77-2.7-1.46-5.45-2.07-8.19-1.23-5.5-1.89-11.1-2.26-16.72-.1-1.57-.17-3.13-.21-4.7,1.94-.63,3.63-2.02,5.25-3.24,2.15-1.63,4.25-3.38,6.1-5.35.75-.8,2.65-2.44,4.18-4.6,2.22-3.14,4.11-7.08,4.39-8.73.11-.63-.71-1.26-1.24-.8-.92.81-2.23,2.71-2.95,3.69-.77,1.04-5.56,5.73-7.46,7.52-1.81,1.69-3.64,3.37-5.59,4.9-.89.7-1.82,1.33-2.71,1.99.11-8.09,1.11-16.13,3.36-23.97.87-3.02,1.94-5.96,3.01-8.91,1.12-3.08,2.24-6.25,3.58-9.23.61-1.35-1.32-2.25-2.05-.99-1.54,2.63-3.05,5.18-4.28,7.98-1.16,2.66-2.1,5.4-2.95,8.17-.14.47-.27.94-.4,1.41-1.3-2.35-2.25-5.27-2.84-8.02-.58-2.7-.95-5.33-1.62-8.01-.67-2.69-.74-6.92-1.4-9.62-.18-.72-1.36-.6-1.44.12-.32,2.82-.17,5.65-.06,8.49.11,2.93.66,5.77,1.32,8.62.63,2.75,1.32,5.5,2.28,8.15.65,1.8,1.3,3.92,2.32,5.69-.82,3.38-1.51,6.78-2.05,10.21-1.86,11.71-1.61,23.55.88,35.14.54,2.49,1.16,4.95,1.91,7.38-1.95-1.72-5.28-4.31-7.55-5.57-3.51-1.94-10.39-4.62-10.39-4.62l-.69,5.59s2.74.73,4.08,1.28c1.86.77,3.66,1.73,5.37,2.79,3.26,2.02,6.21,4.7,8.65,7.65,2.2,2.66,5.37,7.61,6.65,12.48,1.09,4.14.66,7.75-.87,15.38-.86,4.26-2.45,8.35-3.84,12.46-2.6,7.7-4.28,16.24-.73,23.92.49,1.06,1.05,2.07,1.69,3.05-8.19-4.74-16.65-9.17-25.4-12.72-5.5-2.23-6.96-2.86-12.59-4.74-2.88-.96-9.93-3.18-12.84-4.06-2.87-.86-5.82-1.81-8.8-2.19-1.1-.14-1.7,1.4-.63,1.91,2.36,1.12,4.92,1.92,7.38,2.79,2.57.91,10.02,3.61,12.55,4.6,4.93,1.93,17.33,7.31,20.36,8.78-2.56.44-5.57.48-7.71.78-1.66.23-5.64.79-10.3,1.5-1.6.24-8.1,1.83-9.39,2.86-.64.52-.61,1.92.42,1.98,1.59.09,4.35-.34,5.9-.63,6.31-1.21,11.33-1.48,12.95-1.65,3.52-.37,6.53-.48,9.65-.54,1.63-.03,3.41-.53,6.89.88s6.3,3.35,9.4,5.12c2.3,1.32,4.58,2.66,6.84,4.05,1.13.69,2.41,1.28,3.53,1.99,6.2,3.88,8.09,5.7,11.55,6.27,1.79.3,3.63-3.75,1.95-4.56Z"/>
          <path class="cls-3" d="M104.86,160.83c-3.47-5.24-8.03-11-16.97-14.25l-1.57,4.96c13.04,4.94,16.64,15.72,17.91,20.34,1.28,4.62,1.28,9.71-.07,14.3-1.61,5.48-4.55,10.78-7.49,15.65-1.67,2.76-3.13,5.53-4.13,8.6-2.53,7.8-3.5,14.85-3.3,17.64.2,2.78,5.62,3.38,6.07.61.64-3.89,1.16-9.4,1.79-13.4.49-3.13,2.21-7.3,3.68-9.93,2.84-5.06,5.71-10.25,7.81-15.09,4.71-10.85,2.72-19.7-3.73-29.44Z"/>
        </g>
        <g>
          <path class="cls-3" d="M29.67,188.6c-2.9-.36-8.77,3.47-9.37,5.56s-.58,16.71.61,16.93,15.38-10.6,15.8-13.32-4.83-8.9-7.04-9.18Z"/>
          <path class="cls-2" d="M29.67,188.6s-5.38,13.12-5.8,15.41"/>
          <path class="cls-2" d="M28.27,192.08c.55,1.15,2.64,4.99,2.64,4.99"/>
          <path class="cls-2" d="M26.5,197.81c.41.75,1.6,2.56,1.6,2.56"/>
          <path class="cls-2" d="M27.56,193.84s-2.93,1-4.31,2.1"/>
          <line class="cls-2" x1="25.25" y1="199.84" x2="22.76" y2="201.27"/>
        </g>
        <g>
          <path class="cls-1" d="M25.65,127.91c-1.51-1.46-5.93-2.79-7.21-2.51s-8.52,11.74-8.2,12.77,14.06,1.92,15.04.95c2.18-2.18,1.66-9.95.37-11.2Z"/>
          <path class="cls-2" d="M25.65,127.91c-2.1.84-8.55,6.18-10.15,7.75"/>
          <path class="cls-2" d="M18.56,133.12c.06,1.26-.68,3.7-.68,3.7"/>
          <path class="cls-2" d="M23.11,129.78c-.32,1.46-1.45,5.07-1.45,5.07"/>
          <path class="cls-2" d="M20.99,131.29c-.63-.58-3.54-.65-3.54-.65"/>
        </g>
        <g>
          <path class="cls-1" d="M87.26,27.58c-2.32-.27-8.02-7.35-7.27-11.45s8.77-12.96,10.06-12.61,5.34,12.39,4.98,14.98-6.06,9.28-7.77,9.08Z"/>
          <path class="cls-2" d="M87.26,27.58c-.59-2.03.67-17.16,1.17-18.31"/>
          <path class="cls-2" d="M87.6,16c1.06-.65,2.99-2.55,2.99-2.55"/>
          <path class="cls-2" d="M87.49,17.46c-1.01-.64-2.3-5.01-2.3-5.01"/>
          <path class="cls-2" d="M87.17,22.61c-1.12-.74-2.77-3.13-2.77-3.13"/>
        </g>
        <g>
          <path class="cls-3" d="M30.42,26.24c-2.42-.26-4.92-6.72-4.55-8.75s9-10.83,10.77-9.71,2.27,11.32,1.44,12.75-4.06,6.09-7.66,5.71Z"/>
          <path class="cls-2" d="M30.42,26.24c.22-2.73,3.22-11.33,3.97-12.66"/>
          <path class="cls-2" d="M32.45,19.6c.9-.06,2.66-1.32,2.66-1.32"/>
          <path class="cls-2" d="M31.02,22.79c-.35-.68-1.48-3.72-1.48-3.72"/>
          <path class="cls-2" d="M32.9,17.15c-.36-.57-.81-3.65-.81-3.65"/>
        </g>
      </g>
    </g>
  </g>
</svg>