<?xml version="1.0" encoding="UTF-8"?>
<svg id="Layer_2" data-name="Layer 2" xmlns="http://www.w3.org/2000/svg" xmlns:xlink="http://www.w3.org/1999/xlink" viewBox="0 0 331.89 155.55">
  <defs>
    <style>
      .cls-1 {
        fill: none;
        stroke: #4c312b;
        stroke-miterlimit: 10;
        stroke-width: 2px;
      }

      .cls-2 {
        fill: #f9ddca;
      }

      .cls-2, .cls-3, .cls-4, .cls-5 {
        stroke-width: 0px;
      }

      .cls-3 {
        fill: #63232f;
      }

      .cls-6 {
        clip-path: url(#clippath);
      }

      .cls-7, .cls-4 {
        fill: #ffe7d7;
      }

      .cls-5 {
        fill: #934855;
      }
    </style>
    <clipPath id="clippath">
      <path class="cls-4" d="M314.7,53.29l-144.53,82.2c-2.62,1.49-5.83,1.48-8.44-.03L18.66,52.95c-2.47-1.43-4.56-3.44-6.08-5.86L2.54,31.01c-1-1.6-1.54-3.46-1.54-5.35V5.11C1,2.84,2.84,1,5.11,1h321.67c2.27,0,4.11,1.84,4.11,4.11v20.93c0,1.65-.4,3.27-1.18,4.73l-8.23,15.52c-1.55,2.93-3.91,5.35-6.79,6.99Z"/>
    </clipPath>
  </defs>
  <g id="Layer_3" data-name="Layer 3">
    <g>
      <path class="cls-7" d="M314.7,53.29l-144.53,82.2c-2.62,1.49-5.83,1.48-8.44-.03L18.66,52.95c-2.47-1.43-4.56-3.44-6.08-5.86L2.54,31.01c-1-1.6-1.54-3.46-1.54-5.35V5.11C1,2.84,2.84,1,5.11,1h321.67c2.27,0,4.11,1.84,4.11,4.11v20.93c0,1.65-.4,3.27-1.18,4.73l-8.23,15.52c-1.55,2.93-3.91,5.35-6.79,6.99Z"/>
      <g class="cls-6">
        <path class="cls-2" d="M353.81,45.82c-.57-8.43-.81-16.95-1.03-25.4-.21-8.59,0-17.31.01-25.92,0-3.25-.07-6.62-.32-9.86-.2-2.6-.87-4.62-3.57-5.5-2.49-.8-5.8-1.16-8.43-1.54-3.04-.45-6.07-.93-9.11-1.4-6.98-1.07-14.01-.98-21.02-1.41-5.99-.37-11.99-.34-17.98.05-7.52.48-15.38,3.61-22.92,2.74-4.1-.47-7.88-2.64-12.02-3.13-3.67-.43-7.27-.45-10.97-.38-7.03.14-13.9.25-20.89,1.01-6.26.67-12.54,1.61-18.73,2.73-7.95,1.45-15.78,2.57-22.98,6.47-6.36,3.44-9.39,7.92-8.2,15.44.59,3.77,2.49,7.38,4.37,10.65.73,1.3,1.94,2.51,2.59,3.8.08.16.15.34.22.52.47,1.29.62,3.03.88,4.3.68,3.21.19,7.84,2.08,10.64,1.03,1.53,3.37,3.11,4.94,4.04,7.18,4.22,16.89,3.61,23.12,9.4-.05.18-.05.37.03.58.73,1.79,2.45,3.11,3.68,4.59,2.21,2.64,4.04,5.29,5.32,8.49,2.08,5.2,4.81,10.86,11.22,11.1,7.1.28,14.79.42,21.21,4.07,5.33,3.04,11.16,4.65,17.24,5.28.1.02.21.03.31.04.25.46.65.87,1.24,1.17,2.31,1.18,3.86.94,6.35.56,4.27-.66,8.45-.29,12.73.11,2.77.25,5.35-.08,8.11-.44,5.13-.65,10.29-.87,15.44-1.25,7.78-.56,15.57-1.13,23.36-1.63,5.66-.36,11.5.48,13.53-5.96,2.32-7.38.7-16.42.19-23.96Z"/>
      </g>
    </g>
    <path class="cls-1" d="M314.7,53.29l-144.53,82.2c-2.62,1.49-5.83,1.48-8.44-.03L18.66,52.95c-2.47-1.43-4.56-3.44-6.08-5.86L2.54,31.01c-1-1.6-1.54-3.46-1.54-5.35V5.11C1,2.84,2.84,1,5.11,1h321.67c2.27,0,4.11,1.84,4.11,4.11v20.93c0,1.65-.4,3.27-1.18,4.73l-8.23,15.52c-1.55,2.93-3.91,5.35-6.79,6.99Z"/>
    <g>
      <path class="cls-5" d="M196.34,137.2c.99-2.93,2.71-7.95,2.35-13.01-.42-5.91-3.11-11.8-4.42-13.67-2.42-3.46-12.77-14.08-12.77-14.08l-9.17-2.78-7.96.06-16.82,6.39-8.22,8.43-3.22,9.12,2.22,9.56,2.44,10.77,2.54,6,4.57,4.9,5.78,3.21,4.89.78,10.78,2.11h4.44l5.56-3.22,8.28-6.89,4.06-1.78,4.67-5.92Z"/>
      <g>
        <path class="cls-3" d="M168.34,155.55c-4.18-.91-8.4-1.58-12.62-2.27-4.45-.73-7.9-3.23-11.03-6.43-3.16-3.23-4.67-7.03-5.36-11.39-.64-4-2.51-7.68-3.41-11.65-1.44-6.34-.33-12.08,3.58-17.28.51-.67,1.03-1.35.83-2.33-.16-.79.51-1.21,1.04-1.58,1.25-.86,2.55-1.67,3.85-2.45,1.18-.71,2.43-1.32,3.61-2.04.95-.58,1.92-1.04,3.03-1.2,1.24-.18,2.4-.62,3.55-1.09,7.07-2.89,14.24-4.03,21.92-2.6,3.48.65,5.78,2.14,7.77,4.85,1.93,2.62,3.88,5.27,6.44,7.35.66.54.97,1.3,1.34,2.01,1.51,2.86,3.33,5.58,4.23,8.74.11.4.36.78.2,1.26-.55-.16-.6-.65-.75-1-2.1-5.05-5.66-9-9.58-12.66-.7-.66-1.32-1.38-1.9-2.13-3.61-4.75-8.66-6.36-14.34-6.81-6.84-.53-13.04,1.66-18.89,4.72-3.97,2.08-7.92,4.48-10.72,8.17-3.08,4.07-4.07,8.71-3.42,13.77.46,3.53,1.93,6.77,2.76,10.18.55,2.27.95,4.57,1.54,6.82,1.7,6.38,5.86,10.53,11.91,12.89.74.29,1.59.75,2.31-.24.29-.4.8-.08,1.2.07,3.94,1.49,7.95,2.66,12.18,2.9,3.25.18,6.24-.5,8.82-2.6,2.81-2.28,5.51-4.7,8.52-6.73.36-.24.68-.57,1.07-.7,4.77-1.66,6.71-5.77,8.62-9.91.9-1.95,1.21-4.08,1.96-6.08-.05,4.84-.59,9.55-3.82,13.49-1.08,1.31-2.45,2.25-4.16,2.58-.63.12-1.08.59-1.58.95-2.78,2.01-5.54,4.05-8.09,6.35-2.16,1.96-4.65,3.29-7.45,4.08h-5.15Z"/>
        <path class="cls-3" d="M190.71,124.76c.31,4.83-1.11,9.36-2.89,13.8-.56,1.38-1.58,2.54-2.68,3.5-1.85,1.62-3.61,3.36-5.83,4.53-1.01.54-2.02.64-3.1.81-1.36.21-2.65.77-4.01,1.03-15.69,2.96-30.02-8.52-30.6-24.47-.14-3.71.22-7.38,1.81-10.74,3.95-8.37,10.41-13.28,19.83-13.93,4.6-.31,9.07.38,13.23,2.3,9.82,4.52,14.59,12.27,14.25,23.16ZM189.49,124.78c-.15-2.25-.26-4.1-.4-5.95-.14-1.73-.61-3.35-1.4-4.91-2.89-5.74-7.41-9.56-13.49-11.55-6.19-2.03-12.37-2.28-18.34.67-5.8,2.86-10,7.24-11.6,13.68-2.03,8.16-.84,15.7,4.74,22.24,3.08,3.61,6.79,6.36,11.48,7.58,3.52.92,7.06.89,10.64.37,5.66-.83,10.76-2.43,13.91-7.88,2.65-4.58,4.38-9.32,4.47-14.25Z"/>
        <path class="cls-3" d="M167.73,108.43c.25-.6.33-.92.5-1.19.51-.81,1.16-.78,1.61.08.22.42.42.9.42,1.35,0,2.13-.06,4.26-.17,6.39-.03.52-.02,1.32-.79,1.31-.72,0-1.09-.62-1.33-1.29-.52-1.42-1.09-2.83-1.66-4.24-.1-.26-.26-.5-.43-.73-1.33-1.82-1.91-1.76-2.82.31.03.04.05.09.09.1,3.12,1.22,3.51,1.75,3.12,4.97-.53,4.44-.64,8.89-.53,13.36.02.67-.05,1.35-.38,1.93-.25.43-.5,1.03-1.15.9-.54-.11-.78-.57-.95-1.12-.48-1.49-.35-3.02-.4-4.53-.11-3.43.04-6.85.51-10.26.21-1.54-.15-2.98-1.28-4.07-.89-.86-.58-1.72-.3-2.63.29-.94,1.02-1.13,1.91-1.15.49-.01,1.37.46,1.4-.33.02-.62-.92-.72-1.51-.79-1.68-.2-2.79.71-3.14,2.61-.23,1.26-.39,2.54-.49,3.82-.36,4.41-.68,8.83-1.01,13.24-.02.28-.03.57,0,.86.06.58-.13,1.52.61,1.52.67,0,.41-.92.45-1.45.31-4.08.07-8.2.82-12.25.09-.52.17-1.03.26-1.55.04-.24.12-.51.41-.48.34.04.46.33.42.64-.12.94-.3,1.87-.39,2.81-.38,4.07-.25,8.15-.25,12.23,0,.84.28,1.67.42,2.51.18,1.03.25,2.24,1.52,2.46,1.28.22,2.19-.57,2.98-1.54,1.27-1.56,1.64-3.48,2.34-5.27.15-.38,0-1.13.74-.97.59.13.56.74.51,1.2-.3,2.65-.03,5.34-.58,7.97-.1.47-.2,1.04-.74,1.11-.5.07-.65-.44-.8-.86-.35-1-.82-.23-1.15-.02-1.93,1.19-4.88,1.14-6.24-.23-1.02-1.03-1.67-2.33-1.99-3.73-.56-2.4-.68-4.84-.46-7.32.25-2.93.44-5.87.4-8.82-.03-2.38.1-4.77,1.02-7,1.3-3.13,4.74-3.77,7.21-1.4.44.42.78.94,1.26,1.54ZM165.17,116.16c0-.73.04-1.35-.01-1.97-.04-.47.28-1.23-.47-1.27-.57-.03-.57.68-.59,1.14-.19,4.38-.37,8.75-.52,13.13-.02.45-.08,1.14.54,1.13.64-.01.47-.72.49-1.15.18-3.71.19-7.42.56-11.01Z"/>
        <path class="cls-3" d="M187.65,129.53c-1.17,6.04-3.22,11.41-9.44,14.13-2.43,1.06-4.95,1.71-7.52,2.12-1.61.26-3.42-.68-4.94-.13-3.05,1.1-5.17-1.11-7.71-1.74-2.7-.67-4.88-2.28-6.67-4.4-.64-.76-1.3-1.53-1.57-2.52-.1-.36-.27-.81.16-1.02.44-.2.69.22.88.54,1.04,1.79,2.49,3.19,4.08,4.51,2.31,1.9,5.18,1.99,7.86,2.69,3.96,1.03,7.77-.08,11.57-1,1.89-.45,3.8-.8,5.58-1.71,2.66-1.36,4.25-3.52,5.14-6.28.74-2.33,1.76-4.58,1.83-7.09,0-.19.05-.4.3-.41.29,0,.43.2.44.45.02.62,0,1.24,0,1.85Z"/>
        <path class="cls-3" d="M174.67,136.29c-.07,1.04-.16,2.42-.27,3.79-.04.48-.1,1-.66,1.14-.48.12-.78-.24-1.03-.61-.1-.16-.24-.47-.3-.45-2,.52-3.36-1.92-5.42-1.16-.44.16-1.08.06-.48.79.15.18.2.37-.06.39-1.24.12-2.3,1.18-3.69.63-.41-.16-.83-.21-.98-.67-.16-.51.04-.92.46-1.24.53-.4.94-.82,1.13-1.55.29-1.11,1.64-1.33,2.28-.36.47.72.99.76,1.69.62,1.45-.29,2.9-.59,4.38-.29.61.12.63-.23.67-.62.08-.75.09-1.52.26-2.26.13-.58.28-1.34,1.08-1.29.78.05.89.74.93,1.38.03.47,0,.95,0,1.76Z"/>
        <path class="cls-3" d="M168.87,103.98c-4.8-.48-9.24.85-13.53,2.93-.86.42-1.63.94-2.37,1.54-.34.28-.82.46-1.13.02-.3-.42.13-.66.43-.9,2.6-2.06,5.52-3.46,8.68-4.43,2.76-.85,5.57-.98,8.41-.6.23.03.49.03.69.14.38.21,1.07.27.97.84-.09.49-.72.29-1.12.35-.33.05-.66.08-1.03.12Z"/>
        <path class="cls-3" d="M147.46,134.12c-1.27-2.17-2.02-4.55-2.35-7.04-.66-4.91-.39-9.76,1.41-14.43.32-.83.89-1.57,1.38-2.32.23-.34.55-.79,1.04-.46.48.33.19.86-.04,1.15-1.85,2.36-2.12,5.25-2.73,8.02-.68,3.08-.37,6.14.33,9.18.44,1.92.9,3.84,1.36,5.76-.13.04-.26.09-.4.13Z"/>
        <path class="cls-3" d="M187.58,119.47c-1.03-2.57-2.51-4.8-3.98-7.06-1.71-2.63-4.11-4.42-6.75-5.97-.63-.37-1.77-.82-1.38-1.52.53-.95,1.33.13,1.88.44,2.11,1.17,4.31,2.43,5.76,4.3,1.49,1.91,3.27,3.7,4.16,6.05.46,1.21.32,2.48.3,3.76Z"/>
      </g>
    </g>
  </g>
</svg>