<?xml version="1.0" encoding="UTF-8"?>
<svg id="Layer_2" data-name="Layer 2" xmlns="http://www.w3.org/2000/svg" xmlns:xlink="http://www.w3.org/1999/xlink" viewBox="0 0 331.89 179.31">
  <defs>
    <style>
      .cls-1 {
        fill: none;
      }

      .cls-1, .cls-2 {
        stroke: #4c312b;
        stroke-miterlimit: 10;
        stroke-width: 2px;
      }

      .cls-2 {
        fill: #edcfbc;
      }

      .cls-3, .cls-4 {
        fill: #ffdec7;
      }

      .cls-5 {
        clip-path: url(#clippath);
      }

      .cls-6 {
        fill: #4c312b;
      }

      .cls-6, .cls-7, .cls-4 {
        stroke-width: 0px;
      }

      .cls-7 {
        fill: #ffe7d7;
      }
    </style>
    <clipPath id="clippath">
      <path class="cls-4" d="M328.7,175.25l-7.82-28.64c-.65-2.36-2.2-4.38-4.32-5.61l-111.18-64.33c-2.08-1.2-4.44-1.84-6.84-1.84h-65.7c-2.4,0-4.76.63-6.84,1.84L14.82,141c-2.12,1.23-3.67,3.24-4.32,5.61l-7.82,28.64c-.42,1.54.74,3.06,2.34,3.06h321.36c1.6,0,2.76-1.52,2.34-3.06Z"/>
    </clipPath>
  </defs>
  <g id="Layer_2-2" data-name="Layer 2">
    <path class="cls-2" d="M328.78,1h-8.9c-3.85,0-7.63,1.03-10.96,2.97l-142.98,83.7L22.97,3.97c-3.32-1.95-7.11-2.97-10.96-2.97H3.11c-1.17,0-2.11.95-2.11,2.11v172.1c0,1.71,1.39,3.1,3.1,3.1h323.7c1.71,0,3.1-1.39,3.1-3.1V3.11c0-1.17-.95-2.11-2.11-2.11Z"/>
    <g>
      <path class="cls-3" d="M328.7,175.25l-7.82-28.64c-.65-2.36-2.2-4.38-4.32-5.61l-111.18-64.33c-2.08-1.2-4.44-1.84-6.84-1.84h-65.7c-2.4,0-4.76.63-6.84,1.84L14.82,141c-2.12,1.23-3.67,3.24-4.32,5.61l-7.82,28.64c-.42,1.54.74,3.06,2.34,3.06h321.36c1.6,0,2.76-1.52,2.34-3.06Z"/>
      <g class="cls-5">
        <path class="cls-7" d="M132.6,185.61c-1.07-2.88-.87-6.3-2.66-8.9-1.56-2.28-4.11-2.93-6.41-4.18-2.71-1.47-4.07-4.11-5.62-6.63-1.58-2.58-4.13-4.6-5.15-7.51-.45-1.3-.45-3.18-1.64-4.09-1.31-.99-4.05-.77-4.81-2.33-.35-.7-.2-1.63-.4-2.38-.33-1.19-1.01-2.32-2.01-3.05-2.18-1.58-5.52-2.05-8.12-2.41-3.75-.52-7.54-.56-11.3-.95-3.14-.33-6.4-.62-8.86-2.78-1.71-1.5-3.01-2.74-5.37-3.1-3.3-.49-6.75-.63-10.07-.44-3.32.18-6.47.92-9.67,1.76-3.39.89-7.19,1.95-10.69,1.12-2.51-.59-3.88-2.91-5.84-4.38-2.37-1.76-4.98-1.5-7.66-.65-3.05.96-6.08,1.92-9.15,2.81-6.88,1.99-13.72,4.17-20.34,6.93-3.08,1.29-6.07,2.78-8.99,4.4-1.06-.55-2.6.59-1.78,1.79.44.66.21,2.16.2,2.94-.02,1.45-.11,2.89-.18,4.33-.19,3.74-.37,7.48-.55,11.22-.38,7.67-.77,15.34-1.24,23.01-.11,1.79-.22,3.58-.38,5.37-.12,1.42-.36,2.9-.1,4.32.34,1.89,1.79,2.7,3.58,2.9,3.24.35,6.59.12,9.84.12,3.86,0,7.71,0,11.56-.17,7.72-.35,15.43-1.16,23.16-1.25,7.64-.08,15.27.53,22.88,1.04,15.05,1.02,30.12.7,45.1-1.11,7.44-.9,14.78-2.16,21.95-4.34,1.59-.48,3.19-1.04,4.82-1.37,1.18-.24,2.39-.37,3.56-.68,2.19-.58,4.33-1.85,4.48-4.34.14-2.5-1.31-4.76-2.14-7.02Z"/>
      </g>
    </g>
    <path class="cls-1" d="M328.7,175.25l-7.82-28.64c-.65-2.36-2.2-4.38-4.32-5.61l-111.18-64.33c-2.08-1.2-4.44-1.84-6.84-1.84h-65.7c-2.4,0-4.76.63-6.84,1.84L14.82,141c-2.12,1.23-3.67,3.24-4.32,5.61l-7.82,28.64c-.42,1.54.74,3.06,2.34,3.06h321.36c1.6,0,2.76-1.52,2.34-3.06Z"/>
    <g>
      <g>
        <path class="cls-6" d="M130.16,153.17c.41-1.33,1.53-1.65,2.69-1.77,1.15-.11,1.66.78,2.07,1.67.32.68.56,1.39.88,2.08.71,1.52,1.48,1.72,2.8.57.89-.78,1.62-1.75,2.77-2.52-1.42-.65-2.63-.4-3.93-.07.56-1.12,1.6-1.49,2.76-1.59,1.37-.11,2.68.28,4.02.51,1.77.3,3.57.73,5.19-.79-.25,1.27-1.29,2.11-2.81,2.28-.84.09-1.7.02-2.55-.01-1.38-.05-2.56.44-3.54,1.38-1.37,1.3-1.39,3.36-.07,4.7,1.15,1.16,3.95,1.53,5.36.7.81-.48,1.27-1.14,1.01-2.12-.15-.58-.13-1.1.45-1.44.35-.2.68-.16.96.13.44.45.42.99.24,1.54-1.11,3.42-6.61,4.89-9.22,2.46-.29-.27-.63-.59-.72-.95-.37-1.49-.44-3.05-2.82-2.36-.74.21-1.18-1.07-1.5-1.86-.27-.66-.55-.73-1.07-.22-.49.49-1.04.95-1.6,1.36-.53.39-1.18.78-1.81.57-1.07-.36-2.07-.46-3.15-.07-.41.15-.91.03-1.18-.44-.14-.25-.09-.49.06-.7.3-.43.71-.44,1.2-.35,1.42.24,2.17-.55,1.84-1.92-.15-.61-.46-1.13-1.11-1.31-.61-.17-1.1.11-1.45.57-.45.59-.84,1.24-1.25,1.87-.7,1.08-1.53,2.01-2.9,2.19-.5.07-1.02.07-1.35-.43-.15-.23-.12-.49.04-.7.35-.47.81-.56,1.34-.35,1.11.44,1.61-.14,1.82-1.11.19-.87-.09-1.62-.88-2.05-.75-.41-1.4,0-1.86.56-.57.7-1.01,1.49-1.51,2.24-.44.65-.77,1.42-1.88,1.64.46-1.05.9-1.97,1.25-2.91.22-.6.47-1.38-.38-1.67-.91-.31-1.35.28-1.57,1.14-.46,1.79-1.53,3.02-3.38,3.45-.48.11-1.02.12-1.4-.32-.22-.26-.19-.57,0-.83.37-.48.84-.45,1.35-.26.69.26,1.3.16,1.67-.55.41-.78.36-1.56-.22-2.24-.51-.6-1.18-.75-1.9-.42-1.11.51-1.71,1.5-2.3,2.5-.45.78-.82,1.68-1.94,1.98,2.85-9.56,6.11-15.56,9.02-16.3-3.2,3.17-4.72,7.19-6,11.4.63.02.96-.42,1.39-.62.6-.28,1.33-.71,1.85-.35,1.3.88,2.5.6,3.77.07.36-.15.88-.13,1.14.18,1.06,1.29,1.8.37,2.56-.32,1.71-1.55,3.06-3.45,4.96-4.81.66-.47,1.32-.92,2.13-1.08.86-.17,1.49.2,1.83.97.45,1.03-.17,1.73-.88,2.34-.6.51-1.3.86-2.06.38-.6-.38-.52-.92-.1-1.42.47-.56.79-.49.98.24.07.26.36.35.62.22.27-.12.3-.38.3-.64,0-.87-.82-1.35-1.74-.91-2.01.96-3.21,2.83-4.71,4.36-.29.3-.09.62.21.71.65.19.68,1.37,1.64,1,.18-.07.34-.22.51-.32,2.12-1.26,2.88-1.04,4.04,1.13-.13.53-.17,1.11-.41,1.59-.52,1.08.06,1.41.95,1.4,1.16,0,1.69-.94,2.2-1.8.25-.41.23-.89-.12-1.25-.73-.77-1.46-.28-2.19.02-.13.05-.29.04-.44.06Z"/>
        <path class="cls-6" d="M85.45,151.41c-1.09-.1-2.09.44-3.25.74.11-.93.74-1.1,1.23-1.34,1.68-.85,3.5-.9,5.3-.66,2.69.37,5.39.45,8.1.39,1.86-.04,3.7.19,5.52.58,1.71.37,3.46.68,5.09-.5-.69,1.28-1.81,1.92-3.22,2.03-.85.07-1.7-.06-2.56-.05-1.76.03-3.52,1.24-4.01,2.68-.5,1.48,0,2.67,1.09,3.64,1.13,1.01,3.85,1.21,5.13.41.77-.49,1.33-1.1.94-2.12-.2-.52-.19-.99.3-1.34.31-.23.65-.29.97-.04.49.4.59.94.37,1.5-.81,2.02-2.38,3.19-4.45,3.69-1.94.48-3.7.09-5.09-1.43-1.18-1.28-1.22-3.08-.19-4.74.61-.99,1.53-1.7,2.4-2.48-1.81-1.05-3.51-.5-4.21,1.38-2.53,6.77-7.3,11.79-12.71,16.31-.19.16-.39.32-.97.01,4.4-4.11,8.98-8,11.41-13.93-1.47.47-2.73.86-3.75-.44-.32-.41-.73.05-1.07.22-1.17.58-2.43,1.1-3.39-.18-.95-1.27-.32-2.46.59-3.53.18-.21.5-.36.41-.81ZM87.8,151.4c-.21.04-.6.02-.88.18-.88.48-1.54,1.18-1.48,2.25.04.71.51,1.22,1.23,1.33,1.05.16,1.68-.44,2.13-1.32.2-.4.4-.81.66-1.18.48-.67.3-.97-.49-1.03-.35-.03-.69-.13-1.17-.23ZM92.67,151.83c-.15,0-.3-.01-.45,0-1.1.03-1.78.59-1.98,1.67-.13.75.09,1.43.86,1.71,1.04.37,1.7-.25,2.24-1.03.11-.16.21-.34.31-.51.84-1.51.7-1.77-.98-1.82Z"/>
        <path class="cls-6" d="M39.36,150.86c-1.38-.58-2.58-.22-3.99.15.71-1.43,1.85-1.6,2.95-1.73,1.36-.15,2.69.24,4.01.49,1.78.33,3.56.69,5.25-.48-.64,1.36-1.86,1.86-3.22,2.02-.84.09-1.7-.06-2.55-.04-2.82.06-4.76,2.35-4.04,4.72.72,2.37,4.92,3.44,6.7,1.7.54-.53.81-1.14.48-1.9-.24-.53-.13-.99.38-1.3.27-.17.57-.18.84.02.45.34.55.81.46,1.34-.28,1.67-2.75,3.62-5.06,3.98-2.08.33-4.3-.69-5.11-2.4-.69-1.46-.32-2.82.54-4.12.61-.92,1.53-1.54,2.38-2.44Z"/>
        <path class="cls-6" d="M78.99,139.86c-3.42,3.02-4.8,7.08-6.19,11.41.8-.38,1.42-.72,2.08-.99.87-.36,1.69-.17,2.37.46.68.64.86,1.44.62,2.34-.43,1.63-2.19,3.16-3.64,3.15-.56,0-1.25-.05-1.22-.78.03-.78.65-.95,1.33-.71.87.31,1.61.27,1.98-.71.31-.82.2-1.6-.5-2.19-.79-.67-1.58-.48-2.33.09-.9.69-1.44,1.65-2,2.6-.37.62-.64,1.38-1.73,1.46,2.35-5.3,3.19-11.18,7.49-15.43.32-.32.67-.61,1.02-.89.1-.08.27-.06.41-.08.11.09.22.17.32.26Z"/>
        <path class="cls-6" d="M30.5,146.28s.29-2.27.76-2.7c.19-.17.51-.45.59-.3.2.4-.58,2.86-.58,2.86,0,0,1.85-1.06,1.98-.68.25.73-2.44,2.02-3.15,1.57-.28-.18-.74-2.5-.51-2.71.59-.54.9,1.96.9,1.96Z"/>
        <path class="cls-6" d="M27.96,154.91c.34-.7.73-1.38,1-2.11.25-.67.8-1.39.23-2.11-.56-.71-1.3-.06-1.96-.09.35-1.02,1.78-1.81,2.76-1.45,1.17.43,1,1.39.71,2.26-.48,1.45-.97,2.93-2.74,3.5Z"/>
      </g>
      <path class="cls-6" d="M44.09,147.29c1.03-.95,2.01-1.99,3.12-2.83.41-.24.83-.45,1.34-.55l.05.07c-.46.9-1.21,1.45-2.06,1.92-.79.5-1.59.99-2.4,1.46l-.05-.07h0Z"/>
      <path class="cls-6" d="M66.54,148.39c.83-1.31,1.59-2.68,2.53-3.9.36-.37.74-.73,1.23-1l.07.05c-.27,1.07-.9,1.88-1.65,2.62-.69.77-1.39,1.53-2.11,2.27,0,0-.07-.05-.07-.05h0Z"/>
      <path class="cls-6" d="M76.02,148.11c.83-1.13,1.6-2.32,2.54-3.35.35-.31.73-.59,1.21-.79l.06.06c-.28.97-.91,1.65-1.66,2.26-.68.64-1.37,1.27-2.09,1.87l-.06-.06h0Z"/>
      <path class="cls-6" d="M103.29,148c.2-.63.31-1.33.63-1.88.1-.11.5-.46.71-.35.17.56-.01.93-.38,1.28-.28.34-.57.67-.89,1,0,0-.07-.04-.07-.04h0Z"/>
      <path class="cls-6" d="M135.31,148.48c.2-.63.31-1.33.63-1.88.1-.11.5-.46.71-.35.17.56-.01.93-.38,1.28-.28.34-.57.67-.89,1,0,0-.07-.04-.07-.04h0Z"/>
      <path class="cls-6" d="M68.33,150.34c-.62-.62-1.37-.44-2.12-.23-.5.13-1.01.7-1.54.25-.97-.84-1.86-.44-2.77.05-.36.19-.69.43-1.08.04-1.14-1.14-2.27-.69-3.4.03-.39.24-.76.78-1.25.11-.9-1.23-2.01-1.14-3.18-.44-.56.34-.93.46-1.53-.13-1.01-1-2.86-.38-3.42,1.09.22-.03.41-.04.6-.08,1.54-.32,1.87,0,1.41,1.51-.29.95-.63,1.92-1.1,2.79-2.78,5.09-6.03,9.83-10.37,13.75-.41.37-1,.66-1.02,1.47.85-.05,1.3-.63,1.78-1.09,3.74-3.54,6.94-7.52,9.45-12.02.73-1.3,1.63-1.89,3.12-1.8,2.5.15,5.01.22,7.52.26,1.49.03,2.84-.32,3.79-1.79-.6-.23-.82.04-1.08.15-.55.23-1.23.63-1.67.14-.35-.39.35-.84.48-1.3.07-.24.22-.46.26-.7.11-.75.51-1.21,1.28-1.22.84-.01,1.03.68,1.22,1.31.27.91.34,1.92.79,2.73.58,1.02.33,1.73-.26,2.59-2.21,3.2-4.92,5.94-7.77,8.56-.38.35-1.02.61-.94,1.42.69-.12,1.07-.54,1.48-.88,1.84-1.49,3.45-3.22,4.99-5,2.53-2.92,4.93-5.96,6.37-9.61.25-.64.58-1.36-.03-1.97ZM54.84,152.94c-.11.84-.55,1.38-1.44,1.43-.88.05-1.77.08-2.79.12.35-1.17.87-2.1,1.64-2.88.51-.51,1.12-.87,1.87-.47.74.39.81,1.07.71,1.8ZM59.63,153.23c-.19,1.02-.87,1.39-1.85,1.33-.2-.01-.4-.01-.6-.01q-1.88-.11-.83-1.75c.14-.21.26-.43.41-.63.53-.71,1.14-1.38,2.12-1,.93.37.9,1.23.76,2.06ZM65.77,154.48c-.27.02-1.46-3.04-1.06-3.5.51-.58,1.82-.68,2.29-.05.47.63-.95,3.53-1.22,3.54Z"/>
    </g>
  </g>
</svg>