<?xml version="1.0" encoding="UTF-8"?>
<svg id="Layer_2" data-name="Layer 2" xmlns="http://www.w3.org/2000/svg" viewBox="0 0 187.96 277.19">
  <defs>
    <style>
      .cls-1 {
        fill: #c0d5dd;
      }

      .cls-1, .cls-2, .cls-3, .cls-4, .cls-5, .cls-6, .cls-7, .cls-8, .cls-9, .cls-10, .cls-11, .cls-12, .cls-13, .cls-14 {
        stroke: #3f3632;
        stroke-linecap: round;
        stroke-linejoin: round;
      }

      .cls-2 {
        fill: #f7dcd0;
      }

      .cls-3 {
        fill: #f4ded6;
      }

      .cls-4 {
        fill: #e3eff7;
      }

      .cls-5 {
        fill: none;
      }

      .cls-6 {
        fill: #bf726a;
      }

      .cls-7 {
        fill: #ecc3c0;
      }

      .cls-8 {
        fill: #c59e51;
      }

      .cls-9 {
        fill: #514d55;
      }

      .cls-10 {
        fill: #d3e2ea;
      }

      .cls-11 {
        fill: #f3fafd;
      }

      .cls-12 {
        fill: #fcd47d;
      }

      .cls-13 {
        fill: #fff;
      }

      .cls-14 {
        fill: #6d696d;
      }
    </style>
  </defs>
  <g id="Layer_7" data-name="Layer 7">
    <g>
      <g>
        <g>
          <path class="cls-2" d="M93.99,158.55c.08,1.08,1.58,2.43,2.42,3.18s2.93,2.03,6.71,2.25c3.92.23,8.5.18,9.04-.78s-1.21-1.8-1.21-1.8c0,0-2-.36-4.25-.53s.63-1.39.63-1.39c0,0,8.67.08,9.33,0s2.47-1.92,1.67-2.5-11.38-.46-11.38-.46c0,0,9.36.1,9.61-.1s1.64-1.86.64-2.44-10.5-.5-10.5-.5c0,0,8.71,0,9.05-.08s1.33-1.4.33-2.11c-.35-.25-2.67-.39-5.79-.47-5.75-.14-14.18.36-15.04.55l-1.96.24v5.79l.71,1.15Z"/>
          <path class="cls-5" d="M98.83,156.32c1.29-.5,3.62-.5,4.46.27s1.45,3.7,3.41,4.28"/>
          <path class="cls-6" d="M84.83,152.09c2.26-.09,10-1.09,10.42-.73s-.43,9.45-1.09,9.95-8.49,1.25-8.74.83-.58-10.06-.58-10.06Z"/>
        </g>
        <path class="cls-4" d="M78.74,168.74c-.58-2.75-.91-4.75-.91-4.75,0,0,.25,3.05.25,6,0,5.64-3.6,10.4-7.96,10.99-2.17.29-4.53-.44-6.73-2.61-1.87-1.84-3.63-4.72-5.06-8.88-.04-.13-.09-.25-.13-.38-.64-1.9-1.09-3.57-1.27-4.27-.06-.23-.09-.35-.09-.35l.03.31.7,8.33.35,4.09.35,4.13-5.14-1.88-6.51-2.37.44-19.77.04-1.8.14-6.22.15-6.63.07-3.27.2-9,.06-2.42.2-8.98v-.23l.13-5.83.32-13.92c3.28,3.03,5.97,5.24,5.93,4.43-.03-.52-.17-2.21-.3-4.72-1.94-3.38-3.75-6.82-5.4-10.24v-.39s.1-4,.1-4l5.12.91h.01c5.7,1.08,9.87,1.66,12.37,3.75,2.5,2.08,5.83,12.84,6.17,19.63.33,6.78-1.25,40.95-1.34,41.7-.08.75-6.08,1.09-6.08,1.09,0,0,20.99-.38,21.82.18.1.06.19.25.29.55.53,1.56,1.11,6.1,1.51,10.25.18,1.94.33,3.8.42,5.23.5,8-8.77,8.31-10.25,1.34Z"/>
      </g>
      <path class="cls-4" d="M87.11,247.34s-6.19,3.02-9.02,4.19c-2.84,1.17-19,4.17-19.14,2-.15-2.17-2.2-34.83-2.36-44.43-.17-9.51-3.78-35.62-7.54-53.82.08-.01.17-.03.25-.04,4.12-.62,7.2-1.53,8.33-2.63.06-.05.12-.14.18-.24,6.01,13.66,13.57,31.07,16.68,39.77,3.33,9.34,6.45,19.34,9.33,34.22,1.56,8.05,2.67,15.46,3.29,20.98Z"/>
      <path class="cls-11" d="M87.6,256.59c-.44,2.66-22.22,7.23-34.22,7.73-12,.49-36.44-.18-40.89-1.29-3.92-.98,11.95-86.05,17.53-107.38.73-2.81,1.29-4.51,1.6-4.78,2.65-2.28,24.92-1.39,24.92-1.39.42.94.84,1.91,1.27,2.89-.06.1-.12.19-.18.24-1.13,1.1-4.21,2.01-8.33,2.63-.08.01-.17.03-.25.04,3.76,18.2,7.37,44.31,7.54,53.82.16,9.6,2.21,42.26,2.36,44.43.14,2.17,16.3-.83,19.14-2,2.83-1.17,9.02-4.19,9.02-4.19.53,4.69.7,8.02.49,9.25Z"/>
      <g>
        <path class="cls-4" d="M40.05,186.74c-.5,13.04-5.17,35.12-6.5,44.91-1.34,9.78-2.61,16.96-7.07,29.3-4.46,12.33-24.66,17.75-24.99,15.08-.69-5.56-1.02-12.27-.98-19.56,11.36-14.34,18.27-28.79,24.93-47.16,6.22-17.2,10.14-41.17,11.84-54.51.97.48,1.63.92,1.82,1.23.89,1.49,1.45,17.67.95,30.71Z"/>
        <path class="cls-10" d="M37.28,154.8c-1.7,13.34-5.62,37.31-11.84,54.51-6.66,18.37-13.57,32.82-24.93,47.16.02-7.85.46-16.36,1.31-24.82.43-4.21.99-8.26,1.68-12.33,6.24-9.65,16.44-23.84,19.79-32.58,3.02-7.86,7.33-18.79,9.94-33.62,1.55.55,2.98,1.14,4.05,1.68Z"/>
        <line class="cls-5" x1=".51" y1="256.47" x2=".5" y2="256.48"/>
        <path class="cls-5" d="M38.1,147.48c-.15,1.73-.43,4.24-.82,7.32"/>
        <path class="cls-1" d="M33.23,153.12c-2.61,14.83-6.92,25.76-9.94,33.62-3.35,8.74-13.55,22.93-19.79,32.58,1.88-11.04,4.73-22.28,8.38-37.62,4.83-20.3,11.87-30.28,11.87-30.28,1.34-.71,5.73.36,9.48,1.7Z"/>
        <path class="cls-5" d="M34.04,148.02c-.24,1.75-.51,3.45-.81,5.1"/>
      </g>
      <path class="cls-11" d="M66.8,116.14c-.03,1.45-1.89,7.6-3.6,14.2-.34,1.31-.68,2.63-.99,3.94-2.02,8.43-3.43,16.4-4.4,18.09-.06.1-.12.19-.18.24-1.13,1.1-4.21,2.01-8.33,2.63-.08.01-.17.03-.25.04-.63.09-1.28.18-1.95.25-2.02.24-4.21.41-6.5.5-.18.01-.36.02-.54.02-.32.01-.64.02-.94.02-.06,0-.12,0-.18,0-.63.01-1.24.02-1.83.02-1.59,0-3.06-.06-4.4-.16-.97-.08-1.87-.17-2.69-.29-2.58-.38-4.4-.98-5.29-1.73-.27-.23-.61-1.11-.97-2.5-.23-.86-.46-1.9-.71-3.1.01-.01,0-.02,0-.02-.83-4.22-1.7-10.34-2.23-16.76-.04-.4-.07-.8-.1-1.21-.59-7.63-.67-15.55.35-21.1.12-.63.25-1.23.39-1.79,1.19-4.62,2.84-8.51,4.64-11.72.24-.44.49-.87.74-1.28.51-.84,1.02-1.62,1.53-2.35.94-1.32,1.88-2.48,2.79-3.48,1.7-1.87,3.3-3.19,4.53-3.98.29-.18.62-.32,1-.4.32-.08.68-.11,1.07-.12,0,.33,0,.65,0,.95,0,.8,0,1.88,0,3.18,1.83,2.23,6.65,7.12,10.61,10.79,3.28,3.03,5.97,5.24,5.93,4.43-.03-.52-.17-2.21-.3-4.72-1.94-3.38-3.75-6.82-5.4-10.24-.09-.19-.19-.38-.28-.57.1.06.2.12.29.18,1.88,1.2,3.24,2.39,3.41,3.13.11.47.79,1.57,1.81,3.06,3.97,5.84,13.06,17.75,12.97,21.84Z"/>
      <g>
        <path class="cls-3" d="M53.82,85.02c-.09,3.41-.07,6.57.01,9.28.04,1.67.1,3.16.17,4.44-1.94-3.38-3.75-6.82-5.4-10.24-.09-.19-.19-.38-.28-.57-4.57-9.57-7.92-19-9.44-26.75-.46,7.05-1.06,17.33-1.12,22.93,0,.33,0,.65,0,.95,0,.8,0,1.88,0,3.18-.21-.25-.37-.46-.5-.64-.34-.48-.51-1.68-.57-3.37-.19-5.68.99-16.87,1.91-24.57.57-4.77,1.05-8.21,1.05-8.21l4.03-.04h1.39s1.26-.02,1.26-.02l2.76-.03,2.12-.02,4.1,17.35c-.02.15-.05.29-.07.44-.87,5.41-1.27,10.91-1.42,15.89Z"/>
        <path class="cls-7" d="M54.3,103.46c.04.81-2.65-1.4-5.93-4.43-3.96-3.67-8.78-8.56-10.61-10.79,0-1.3,0-2.38,0-3.18,0-.3,0-.62,0-.95.06-5.6.66-15.88,1.12-22.93,1.52,7.75,4.87,17.18,9.44,26.75.09.19.19.38.28.57,1.65,3.42,3.46,6.86,5.4,10.24.13,2.51.27,4.2.3,4.72Z"/>
        <path class="cls-5" d="M38.1,55.91c.11,1.19.27,2.44.5,3.75.08.5.17,1,.28,1.52"/>
      </g>
      <g>
        <path class="cls-7" d="M60.66,71.13c-.78-.19-1.5-.4-2.13-.62-4.33-1.56-11.45-5.45-13-7.78-.88-1.31-1.4-5.81-1.69-9.48,4.11-.81,7.36-2.85,10.69-5.85.38-.35.77-.71,1.16-1.1,3.21,7.16,5.08,16.45,4.97,24.83Z"/>
        <path class="cls-3" d="M69.31,58.67c1.22,3.46,2.89,12.39,2.66,13.28-.19.76-6.72.3-11.31-.82.11-8.38-1.76-17.67-4.97-24.83-.39.39-.78.75-1.16,1.1-3.33,3-6.58,5.04-10.69,5.85-.23-2.84-.31-5.19-.31-5.19l11.89-16.78,10.22.23c2.44,3.44,5.11,9.77,6.33,13.89,1.23,4.11,2,10.44,2,10.44,0,0-3.77,2.33-4.66,2.83Z"/>
        <path class="cls-6" d="M65.64,31.51c-1.37,3.85-4.23,8.33-7.39,12.03-.84.99-1.7,1.91-2.56,2.76-.39.39-.78.75-1.16,1.1-1.79,1.61-3.55,2.94-5.44,3.96-1.6.85-3.27,1.49-5.12,1.86-.02.01-.05.01-.07.02-.02,0-.04.01-.06.01-1.37.28-2.85.42-4.46.41,0,0-.22,3.14-.5,7.52-.46,7.05-1.06,17.33-1.12,22.93,0,.33,0,.65,0,.95,0,.8,0,1.88,0,3.18.04,10.5.25,35.51.32,43.42.01,1.55.02,2.44.02,2.44l-11.68,13.38s.04-1.12.1-3.04c.01-.15.01-.31.02-.47.16-4.87.48-14.12.8-23.35.01-.26.02-.53.03-.8.13-3.7.26-7.39.38-10.76.23-6.54.43-11.91.53-14.06,0,0-.56-.2-1.44-.56-3.01-1.27-9.73-4.57-10.38-8.99-.04-.31-.06-.62-.04-.94.33-6.23-.22-15.56.89-24.78,1.11-9.22,2.89-21.22,4.44-26.78,1.56-5.55,8.14-12.55,14.01-14.89,1.74-.69,3.5-1.07,5.24-1.19,2.24-.16,4.43.1,6.46.66,1.71.47,3.31,1.16,4.74,1.98.36.21.72.42,1.08.65h0c2.45,1.52,4.9,3.47,7.37,5.88,1.65,1.61,3.31,3.43,4.99,5.47Z"/>
        <path class="cls-5" d="M59.75,58.63c3.11,4.98,11.07,5.88,11.07,5.88"/>
        <path class="cls-5" d="M58.25,43.54c1.84,3.85,6.73,4.85,7.39.85"/>
        <path class="cls-5" d="M47.46,17.53c-2.26,7.48-3.47,14.34-3.93,21.14s0,10.61.31,14.64"/>
        <path class="cls-5" d="M43.84,53.31c5.55-3.66,10.04-11.03,11.99-14.81s3.92-7.13,4.82-12.47"/>
        <path class="cls-5" d="M53.28,20.16c.96,7.78-1.04,15.13-2.49,18.79s-5.11,12.07-6.95,14.36"/>
        <path class="cls-5" d="M41.03,16.82c-7.9,11.8-9.71,22.68-10.68,32.45s-2.07,45.72-2.07,45.72"/>
        <g>
          <path class="cls-7" d="M43.53,38.67c-.09,1.76-.16,3.46-.19,5.06,0,0-8.3-1.91-12.25-8.81-.12-1.23-.12-2.02-.12-2.02,1,.66,8.78,4.55,12.56,5.77Z"/>
          <path class="cls-3" d="M43.56,49.78s-5.21-.32-8.25-3.63c-3.02-3.28-3.94-8.41-4.22-11.23,3.95,6.9,12.25,8.81,12.25,8.81-.03,2.28.02,4.34.22,6.05Z"/>
        </g>
        <path class="cls-5" d="M34.04,18.88c-5.61,8.99-8.33,19.54-9.69,27.27-2.04,11.55-3.23,43.83-2.9,45.25"/>
      </g>
      <path class="cls-2" d="M42.74,126.79c-1.48-1.87.56-7.81,1.16-8.69s3.43-4.98,4.08-5.14,1.77.57,1.55,1.34-1.88,5.16-1.88,5.16c0,0,5.69-9.98,6.27-10.78s2.34.49,1.96,1.68-4.13,8.9-4.13,8.9c0,0,5.05-9.53,5.72-10.32s2.18.45,1.63,2.06-4.44,9.66-4.44,9.66c0,0,3.14-6.83,4.27-7.17s1.99.97,1.33,2.74-6.75,14.29-7.8,15.19-2.38.76-2.38.76l-7.34-5.39Z"/>
      <path class="cls-6" d="M42.18,129.12c1.16-1.93.81-2.99,2.54-2.67,2.53.46,4.77,2.78,5.45,5.87.31,1.38-5.53,12.88-5.53,12.88l-7.8-8.43s4.17-5.72,5.34-7.65Z"/>
      <g>
        <path class="cls-4" d="M9.27,98.37c-.85,12.86,2.6,62.44,2.6,68.48,0,8.28,10.21,8.44,10.46,1.33.18-5.06.08-4.31.08-4.31,0,0,.33,1.55.9,5.25.82,5.27,5.87,9.02,11.62,6.82,4.63-1.77,8-10.6,2.96-22.72-.98-2.35-.43-1-.43-1,0,0,.79,1.61,1.87,3,4.96,6.36,13.3.82,10.44-6.77-2.86-7.59-8.32-18.39-9.23-18.8-.69-.31-7.25,7.09-10.46,10.78-1.06,1.21-7.31,8.18-7.31,8.18,0,0,5.57-6.61,5.59-7.42.15-6.17.83-32.82,1.35-33.88.59-1.2,3.81-4.99,3.48-10.6s-2.33-10.72-6.22-11.91-7.81-.78-10.51.64-6.6,3.93-7.19,12.92Z"/>
        <path class="cls-5" d="M29.72,107.32c-3.08,4.24-10.03,2.62-12.86-1.09-2.56-3.35-.4-12.6,6.89-11.2,5.11.98,3.96,3.05,3.96,3.05"/>
      </g>
      <path class="cls-5" d="M53.09,161.78c1.67,2.25,8.83,5.92,8.83,5.92"/>
      <path class="cls-5" d="M59.59,163.6c-1.17,3.43-2.5,10.66-2.08,12.87s10.44,6.39,10.44,6.39"/>
      <path class="cls-5" d="M64.42,175.52c-1.17,3.18-4.33,11.84-3.5,15.51s12.83,10.5,13.5,13.33-6.64,21.67-6.82,26,14.44,12.17,14.44,12.17"/>
      <path class="cls-5" d="M70.46,192.7c-1.54,4.16-6.87,18.49-5.87,21.24s12.56,8.68,13.39,12.84-7.52,20.74-7.52,20.74"/>
      <path class="cls-13" d="M29.05,117.15c-3.85,8.55-14.19,23.56-18.19,28.78"/>
      <path class="cls-13" d="M72.4,113.14c-2.98,7-7.09,13.84-9.2,17.2"/>
    </g>
  </g>
  <g id="Layer_6" data-name="Layer 6">
    <g>
      <path class="cls-9" d="M133.82,248.85s5.73-1.36,10.56-2.86,12.43-4.7,12.43-4.7l3.77-20.13-16.19-35.39-11.83,16.04-3.83,35.01,5.11,12.03Z"/>
      <path class="cls-2" d="M133.88,73.92h20.33v-31.58l-19.33,5.25s-1,24.5-1,26.33Z"/>
      <path class="cls-13" d="M138.88,68.31c-.89,1.86-1.4,3.2-1.67,4.04h-.01l-9.09-4.55c.14-2.65.32-4.88.52-4.82,5.36,1.5,10.25,5.33,10.25,5.33Z"/>
      <path class="cls-14" d="M146.49,197.58c.33.3.66.61,1,.96-.35-.33-.68-.65-1-.96ZM184.88,257.31s2.16-7.33,1.5-12c-.67-4.67-2.17-15-2.17-15,1.95-1.31,1.25-5.69,1.68-5.43-.62-7.14-1.78-18.74-3.01-24.9-1.84-9.17-6.17-27.5-7.17-31.17-1-3.67-2.17-9.83-2.17-9.83l-8.66-79.34-6.84-3.83-1.96-25.12c-3.77,4.4-8.54,9.27-10.18,12.72-1.11,2.35-5.84,9.37-9.03,14.25.02-2.54.03-4.25.03-4.25,0,0,.08-.35.3-1.06l-9.09-4.55c-.2,3.88-.32,8.68-.32,8.68,0,0-6.25,3.33-8.16,4.83-1.92,1.5-4.59,4.33-4.67,5.17-.08.83.17,3.33.58,3.79,1.07,3.56,3.78,9.85,6.87,14.18l-6.01-6.74-.27-.31c0,.66.23,27.31.75,30.91,2.48,17.23,3.5,27.43,4,33.67-1,5.16-7,20.66-9.17,29.16-2.17,8.5-6.39,28-7.36,32.17-.97,4.17-1.14,5.67-.97,6.17.16.5.97,1.16.97,1.16,0,0-1.64,9.84-1.81,13-.16,3.17-1.16,8.17,0,10,1.17,1.84,2.84,2.34,2.84,3.17s-.34,2-.34,2c0,0,4.84,2.17,9,3.17,4.17,1,13.67,1.5,14.67,1.33,1-.17.5-1.83.5-1.83,0,0,3-.5,3-3.17s4.33-16.17,5.83-23.67,4-30.3,4-30.3l4.5-4.86s2.45,15.28,3.84,23.33c2.5,14.5,12,33,12.66,34.33.67,1.34,0,3,0,4.5s6.34,1.84,11.67,1.34c5.33-.5,12.75-2.84,12.75-3.67s-2.58-2-2.58-2Z"/>
      <path class="cls-13" d="M122.41,104.45l-6.01-6.74-.27-.31h0s-3.75-3.59-3.59-4.42c.17-.84,1.5-2.09,3-2.71,1.07,3.56,3.78,9.85,6.87,14.18Z"/>
      <path class="cls-5" d="M127.79,76.48c-.18,5.43-1.06,30.1-1.39,38.1s.5,34.33.5,34.33c0,0-2,3.67-6.03,13.07"/>
      <path class="cls-5" d="M156.26,50.48l-.18.21"/>
      <path class="cls-13" d="M126.62,109.19c-.55-.46-1.63-1.62-2.93-3.07-.02-.02-.05-.05-.08-.08-2.35-2.63-5.38-6.19-7.21-8.33l6.01,6.74,4.21,4.74Z"/>
      <path class="cls-5" d="M124,106.48c-.1-.12-.21-.24-.31-.36l-.08-.08c-.4-.49-.81-1.02-1.2-1.59"/>
      <path class="cls-5" d="M116.14,98.69c1.82,8.25,3.57,21.42,5.99,29.5s4.57,13.34,4.57,13.34"/>
      <path class="cls-13" d="M147.59,198.64c-4.5,4.86-16.88,15.38-22.55,19.05s-20.7,12.96-20.7,12.96c0,0-1.01.45-1.01-2.09s1.01-3.13,1.01-3.13c0,0,12.11-7.4,19.99-12.4s20.04-17.51,20.04-17.51l3.21,3.12Z"/>
      <path class="cls-13" d="M186.38,230.98c0,.66-2.17-.67-2.17-.67-6.86-5.6-16.81-13.74-22.64-18.9-5.83-5.17-17.33-15.67-18.5-17.34-1.17-1.66-2.83-15.16-3.17-23.66-.33-8.5-1.3-21.97-1.83-30.13-.53-8.17-1-36.21-1.17-42.54-.16-6.33,0-24.33,0-24.33,0,0,.34-1.67,1.98-5.1,0,0,3.83-9.33,8.16-14.08,4.34-4.75,8.84-6.09,8.84-6.09l.2,2.55c-3.77,4.4-8.54,9.27-10.18,12.72-1.66,3.5-3.5,7.33-4.16,9-.21.52-.3,2.35-.33,4.94-.06,5.69.21,15.01.33,21.89.16,10,.5,32.33,1.16,42,.26,3.68.69,11.36,1.17,19.59.78,13.38,1.67,28.21,2.08,29.55.67,2.17,8.12,8.61,14.42,14.53,5.37,5.05,14.13,12.31,21.39,17.37,1.38.95,2.7,1.83,3.93,2.6.31,3.47.49,5.88.49,6.1Z"/>
      <g>
        <g>
          <path class="cls-8" d="M125.93,49.1c-.8,3.81-1.28,7.79-1.28,11.66-.47.18-.77.3-.77.3l-4.59,4.05c-1,.78-4.89,1.78-5.55,1.23-.67-.56,0-5.89.66-9.78.43-2.49,1.54-6.3,2.28-8.71,2.77-.17,6.39.1,9.25,1.25Z"/>
          <path class="cls-7" d="M143.21,40.36c-.03,1.31-.13,2.63-.3,3.89h0s0,.04-.01.09c-.43,3.05-1.28,5.77-2.69,7.25-2,2.11-4.55,3.41-10.83,7.14-.77.45-3.4,1.51-4.73,2.03,0-3.87.48-7.85,1.28-11.66.96-4.59,2.37-8.93,3.95-12.51,1.8-4.09,4.17-8.78,6.56-13.08.96-1.74,1.92-3.41,2.84-4.96.46-.76.91-1.49,1.35-2.18,1.08,1.06,1.8,2.13,1.8,2.99,0,.43.02,1.14.06,2.03.01.31.03.64.04,1v.18c.17,3.58.48,9.07.62,13.27v.04c.06,1.83.09,3.41.06,4.48Z"/>
          <path class="cls-2" d="M140.63,16.37c-.44.69-.89,1.42-1.35,2.18-.92,1.55-1.88,3.22-2.84,4.96-2.39,4.3-4.76,8.99-6.56,13.08-1.58,3.58-2.99,7.92-3.95,12.51-2.86-1.15-6.48-1.42-9.25-1.25.42-1.37.72-2.29.72-2.29,0,0-6,4.55-6.77,3.89-.78-.67,3.55-25.34,5.22-27.67,1.66-2.33,3.88-4.77,5.33-6.06,4.25-3.8,7.58-4.47,10.7-4.24,2.07.15,6.05,2.35,8.48,4.63.09.09.18.17.27.26Z"/>
          <line class="cls-5" x1="140.63" y1="16.37" x2="140.63" y2="16.36"/>
        </g>
        <g>
          <path class="cls-12" d="M142.49,21.39c-1.5,1.56-2.44,2.45-6.06,2.12s-5.11-3.23-5.22-3.57-7.06,1.22-10.03-4.23c3.69-6.33,13.36-14.33,18.69-15.1s6.89,2.56,6.89,2.56c0,0,4.89-1.22,10.67,0s9,5.98,9.44,8.27,0,5.73-.78,7.51c3.67,2.67,7,7.33,7.44,11.11s-.89,7.11-3.56,7c2.44,6.44.33,10.56-3.89,12.44,1.78,4.44.89,7.03-2,8.62s-5.33-1.31-5.61-4.96l-4.28-1.56-.06-3.11-1.75,1.3s1.06,4.8-3.05,5.69c-2.88.62-5.35-.67-6.12-3.11s-.32-8.12-.32-8.12l.32-10.76-.73-12.11Z"/>
          <path class="cls-5" d="M131.21,19.95c5.06-.33,3.72-4.55,3.17-5.22-1.74-2.12-4.67-.81-3.78,1.64"/>
          <path class="cls-5" d="M146.77,3.17c1,2.75.51,5.2-2.04,5.17-2.86-.04-3.46-3.25-2.79-3.92"/>
          <path class="cls-5" d="M142.49,21.39c1.55-1.44,1.55-3.89.21-5.03-1.54-1.3-3.74,0-3.41,2.19"/>
          <path class="cls-5" d="M166.1,18.95c-1.42,2.14-2.92,2.27-4.33,1.57s-1.67-4.05.67-4.16"/>
          <path class="cls-5" d="M169.99,37.06c-2.44.17-6.44-1.65-5.57-4.86.93-3.4,4.49-3.89,5.15-1.56"/>
          <path class="cls-5" d="M158.49,53.17c.25-2.01,1.64-2.79,2.58-2.68s2.11,1.42,1.61,2.68"/>
          <path class="cls-5" d="M166.1,49.51c-.86-.59-2.36-.92-3.3-2.01-.67-.78-1.05-2.24-.68-3.17.89-2.22,4.22-1.99,4.22-.17"/>
          <path class="cls-5" d="M152.4,49.51c0-1.92-.77-2.57-1.5-2.9s-2.5-.28-2.94,1.06.09,2.38.59,2.82"/>
        </g>
        <g>
          <path class="cls-2" d="M152.54,26.29c-2,4.11-9.31,8.55-9.31,8.55l-.39-6.99s2.26-.34,5.04-3.12c2.77-2.78,4.66-8.67,6.33-11.67.78,0,.33,9.11-1.67,13.23Z"/>
          <path class="cls-7" d="M154.21,13.06c-1.67,3-3.56,8.89-6.33,11.67-2.78,2.78-5.04,3.12-5.04,3.12l-.31-5.45c2.9-2.11,10.9-9.34,11.68-9.34Z"/>
        </g>
      </g>
      <path class="cls-13" d="M133.82,251.05l1.37-5.03s6.46-1.61,9.54-2.78c3.08-1.17,9.96-3.3,10.56-3.61s1.52,3.85,1.52,3.85c0,0-7.19,3.34-10.32,4.34s-9.66,2.7-12.67,3.22Z"/>
      <g>
        <g>
          <polygon class="cls-14" points="162.14 106.47 163.89 143.83 180.72 154.33 179.82 95.71 168.72 97.4 162.14 106.47"/>
          <path class="cls-5" d="M179.72,102.49c-3.5,12.5-6.06,22.76-8.29,27.17-4.14,8.17-7.54,14.17-7.54,14.17"/>
        </g>
        <path class="cls-2" d="M135.1,145.7c-.99-1.18-1.99-2.26-4.66-2.76s-9.03,0-10,.17,2,1.33,2,1.33c0,0-11.5.5-12.25.75s-2.42,3.17,0,3.58,9.83,0,9.83,0c0,0-8.83.67-9.83,1s-.25,2.92,1.25,3.17,9.97-.25,9.97-.25c0,0-7.47.5-8.55.75s-.83,2.94.83,3.38,12,.2,13.58.2,7.08,0,7.67-.83,1.88-1.86,1.88-1.86v-8.06l-1.73-.57Z"/>
        <g>
          <path class="cls-6" d="M147.59,144.56c-5.39-.13-11.64-.21-12.14,0s-.75,5.54-.42,7.54.85,4,1.8,4.58,10.76-.92,10.76-.92v-11.21Z"/>
          <path class="cls-5" d="M141.23,144.44c-.05,3.67-3.62,6.5-6.36,6.67,0,0,7.43,1.65,7.5,5.37"/>
        </g>
        <g>
          <path class="cls-14" d="M147.59,144.56c1.3-1.74,8.3-.74,12.3-.74s19.19-.44,20.83,3.17c3.33,7.33-1.47,10.08-3.67,10.67-2.24.59-25.51,5.24-29.47,8.83-1.1,1-1.63-7.37-1.72-11.42-.12-5.69.42-8.76,1.72-10.5Z"/>
          <path class="cls-5" d="M150.72,147.05c-.33,4,3.67,6.33,3.56,7.28s-3.6,2.81-3.58,7.65"/>
        </g>
        <g>
          <path class="cls-13" d="M159.89,104.83v4.36s4.5-6.19,9.83-8.86,10.93-5.42,14.33-5.71c-2.33-4.35-6.13-8.73-6.13-8.73l-9.37-2.23-8.67,8.83v12.33Z"/>
          <path class="cls-14" d="M158.04,75.81c-3.65,6.51-3.65,13.85-2.82,19.68s4.67,9.33,4.67,9.33c0,0,.62-8.31,6.39-12.32s13.54-7.51,13.54-7.51c0,0-6.26-7.31-13.43-11.07s-8.35,1.89-8.35,1.89Z"/>
        </g>
      </g>
      <path class="cls-5" d="M114.99,53.85c2.79.95,9.63-1.68,10.52-2.56"/>
      <path class="cls-5" d="M120.5,31.96c.72,2.5,1.83,3.17,2.83,3.17,2.59,0,4.44-3,4.78-4.5"/>
      <line class="cls-5" x1="116.68" y1="66.15" x2="117.28" y2="59.24"/>
      <line class="cls-5" x1="120.5" y1="63.58" x2="120.88" y2="60.41"/>
      <path class="cls-13" d="M132.25,99.84c.89-1.15,13.04-1.92,14.09-.86s.22,1.63-.37,2.21-12.69,1.44-13.35.67-.38-2.02-.38-2.02Z"/>
      <path class="cls-13" d="M146.79,121.55c-.89,1.15-13.04,1.92-14.09.86s-.22-1.63.37-2.21,12.69-1.44,13.35-.67.38,2.02.38,2.02Z"/>
    </g>
  </g>
</svg>